<svg width="138" height="26" viewBox="0 0 138 26" fill="none" xmlns="http://www.w3.org/2000/svg">
<path fill-rule="evenodd" clip-rule="evenodd" d="M39.4293 20.4929C38.5886 20.5277 37.6144 20.5427 36.4968 20.5427C35.6116 20.5427 34.9045 20.453 34.3852 20.2589C33.861 20.0796 33.4753 19.7709 33.2281 19.3428C32.9808 18.9096 32.8522 18.342 32.8324 17.63C32.8176 16.9181 32.8918 16.0518 33.055 15.0261L38.5738 15.2253C40.0524 15.29 41.4222 15.2601 42.6881 15.1257C43.9491 14.9962 45.0568 14.6726 46.0112 14.1598C46.9607 13.647 47.7272 12.8952 48.3008 11.9044C48.8745 10.9136 49.1959 9.57429 49.2602 7.88647C49.2899 6.36792 49.102 5.1033 48.6915 4.0926C48.2761 3.08688 47.6629 2.27532 46.842 1.66293C46.0162 1.05053 45.0321 0.622354 43.8848 0.373412C42.7326 0.124471 41.4568 0 40.0425 0C38.2029 0 36.5611 0.18422 35.1171 0.547674C33.6731 0.916108 32.4171 1.52353 31.3489 2.38486C30.2808 3.24122 29.3956 4.41622 28.6884 5.90489C27.9813 7.39356 27.4324 9.24569 27.0367 11.4613L26.4977 14.4884C26.1021 16.7687 26.023 18.6457 26.2505 20.1195C26.4779 21.5882 26.9823 22.7632 27.7538 23.6395C28.5203 24.5158 29.5637 25.1282 30.8791 25.4767C32.1945 25.8252 33.772 25.9995 35.6116 25.9995C37.3523 25.9995 39.0089 25.9148 40.5864 25.7505C42.159 25.5812 43.687 25.3671 45.1656 25.1033L46.1497 19.6963C45.3288 19.8307 44.5722 19.9452 43.8848 20.0448C43.1975 20.1444 42.4903 20.2389 41.7683 20.3186C41.0463 20.4032 40.265 20.458 39.4293 20.4929ZM41.7634 10.575C41.2738 11.0032 40.4677 11.2173 39.3501 11.2173V11.2223H33.7819C33.9451 10.2962 34.138 9.47969 34.3506 8.76772C34.5632 8.05575 34.8649 7.45331 35.2605 6.95543C35.6561 6.46252 36.1655 6.08911 36.7886 5.84017C37.4116 5.59123 38.1979 5.46675 39.1523 5.46675C41.6793 5.46675 42.8464 6.42768 42.6485 8.34453C42.5546 9.40004 42.2579 10.1469 41.7634 10.575ZM10.8266 2.73505L10.0898 0.604115L5.21384 0.609091L0.876953 25.4086H7.57762L10.6832 7.55456C11.4694 6.89237 12.3299 6.37956 13.2695 6.0161C14.2041 5.65265 15.0497 5.46843 15.8063 5.46843C16.9882 5.46843 17.7696 5.70741 18.1454 6.18538C18.5212 6.66335 18.5806 7.59937 18.3185 8.98846L15.4602 25.4037H22.1608L25.0537 8.78931C25.3505 7.13634 25.4494 5.74724 25.3505 4.62203C25.2565 3.49681 24.9647 2.59565 24.49 1.91853C24.0153 1.2414 23.3328 0.753478 22.4477 0.454748C21.5625 0.156018 20.4597 0.00665654 19.1493 0.00665654C18.4273 0.00665654 17.7399 0.0464872 17.0822 0.131127C16.4245 0.215767 15.7717 0.365129 15.114 0.579219C14.4563 0.793309 13.7739 1.07212 13.0667 1.42064C12.3596 1.76916 11.6129 2.2073 10.8266 2.73505ZM65.2183 25.4024L64.427 23.2714C62.8495 24.3319 61.4006 25.0489 60.0704 25.4273C58.7401 25.8057 57.3505 25.9998 55.9066 25.9998C54.5912 25.9998 53.4983 25.8505 52.6329 25.5517C51.7625 25.253 51.09 24.7651 50.6152 24.088C50.1405 23.4108 49.8685 22.5097 49.8042 21.3845C49.735 20.2592 49.8537 18.8702 50.1504 17.2172L53.0582 0.602824H59.7588L56.8511 17.018C56.6187 18.4071 56.6879 19.3431 57.0489 19.8211C57.4099 20.2991 58.1813 20.5381 59.3632 20.5381C60.1198 20.5381 60.9555 20.3588 61.8753 19.9904C62.7951 19.6269 63.6309 19.1141 64.3875 18.4519L67.5425 0.597841H74.2431L69.9063 25.3974L65.2183 25.4024ZM86.0812 6.45799C87.2137 6.1244 88.356 5.9601 89.5033 5.9601L90.5319 0.0104008C89.2857 0.0104008 88.0346 0.209553 86.7884 0.607859C85.5422 1.00617 84.3257 1.61856 83.1438 2.44505L82.407 0.607859H77.6795L73.3426 25.4074H80.0432L83.0993 7.84708C83.9548 7.24962 84.9488 6.78659 86.0812 6.45799ZM104.378 25.4028L103.592 23.2719C102.015 24.3323 100.561 25.0493 99.2306 25.4277C97.9004 25.8061 96.5108 26.0003 95.0668 26.0003C93.7514 26.0003 92.6635 25.8509 91.7931 25.5522C90.9228 25.2534 90.2502 24.7655 89.7755 24.0884C89.2958 23.4113 89.0288 22.5101 88.9595 21.3849C88.8953 20.2597 89.009 18.8706 89.3057 17.2176L92.2135 0.60324H98.9141L96.0064 17.0184C95.7789 18.4075 95.8432 19.3436 96.2042 19.8215C96.5652 20.2995 97.3366 20.5385 98.5185 20.5385C99.2702 20.5385 100.111 20.3592 101.031 19.9908C101.95 19.6274 102.786 19.1145 103.543 18.4523L106.698 0.598257H113.398L109.062 25.3978L104.378 25.4028ZM122.458 2.73381L121.721 0.602867L116.845 0.607843L112.508 25.4074H119.189L122.294 7.55331C123.086 6.89113 123.946 6.37831 124.881 6.01485C125.815 5.6514 126.661 5.46718 127.418 5.46718C128.599 5.46718 129.381 5.70616 129.757 6.18413C130.137 6.6621 130.192 7.59812 129.93 8.98722L127.071 25.4024H133.772L136.68 8.78807C136.977 7.13509 137.075 5.746 136.977 4.62078C136.883 3.49556 136.591 2.5944 136.116 1.91728C135.641 1.24016 134.959 0.75223 134.074 0.4535C133.189 0.15477 132.091 0.00540844 130.775 0.00540844C130.053 0.00540844 129.366 0.0452391 128.708 0.129879C128.055 0.214519 127.398 0.363881 126.74 0.577971C126.087 0.792061 125.405 1.07088 124.698 1.41939C123.991 1.76791 123.244 2.20605 122.458 2.73381Z" fill="url(#paint0_linear_1745_7731)"/>
<defs>
<linearGradient id="paint0_linear_1745_7731" x1="3.29846" y1="13.282" x2="137.014" y2="12.7051" gradientUnits="userSpaceOnUse">
<stop stop-color="#515DC9"/>
<stop offset="1" stop-color="#616FF8"/>
</linearGradient>
</defs>
</svg>
